<svg width="140" height="144" viewBox="0 0 140 144" fill="none" xmlns="http://www.w3.org/2000/svg">
<path d="M29.2293 83.9188C24.7744 80.397 20.5302 76.514 17.49 71.728C14.4498 66.942 12.6438 61.1928 13.4565 55.564C14.2692 49.9652 17.9716 44.6073 23.2994 42.741C26.9115 41.4768 31.0654 41.7779 34.4367 39.9116C37.9284 37.9852 39.8548 34.1022 41.119 30.3396C42.3832 26.5469 43.196 22.5435 45.3632 19.2023C47.5305 15.8612 51.564 13.2725 55.4168 14.326C58.1861 15.0786 60.2028 17.4565 62.7915 18.6906C67.5775 20.9783 73.2063 18.9916 78.504 19.2625C83.5008 19.5033 89.0092 22.8746 88.9189 27.8713C88.8888 31.062 86.6312 33.7109 85.367 36.6306C84.1028 39.5504 84.464 43.8849 87.5042 44.7578C89.8821 45.4501 92.1397 43.5237 94.0962 41.9885C99.7852 37.4734 107.1 35.0955 114.354 35.3965C121.608 35.6975 128.712 38.7076 133.98 43.7043C136.869 46.4434 139.338 50.0555 139.338 54.0288C139.338 57.972 136.99 61.5239 134.732 64.7447C129.826 71.7882 124.167 79.3435 115.829 81.3602C111.464 82.4137 106.738 81.7816 102.524 83.3469C93.8554 86.5375 89.9423 97.7952 81.0325 100.263C77.0894 101.347 72.9354 100.474 68.932 99.5711C60.4436 97.6748 51.9251 95.7784 43.4368 93.9122C40.0655 93.1597 36.6641 92.4072 33.6842 90.6312C30.7343 88.8553 28.266 85.9054 28.0252 82.4739" fill="#F4F6F9"/>
<path d="M126.604 51.7409L126.454 50.9583C128.41 46.9549 128.741 42.0786 127.326 37.8645C127.176 37.3829 126.574 36.5401 125.791 35.6972C125.821 35.6671 125.821 35.6671 125.852 35.637C126.153 36.1487 126.604 36.5702 127.146 36.7809C127.898 37.0518 128.831 36.8411 129.283 36.1788C129.494 35.8477 129.584 35.4263 129.644 35.035C129.855 33.1989 129.313 31.3326 128.41 29.7072C127.507 28.0818 126.303 26.667 125.099 25.2523C124.798 24.8911 124.467 24.5299 124.015 24.4095C123.714 24.3192 123.383 24.4095 123.112 24.56C122.902 24.3493 122.661 24.1687 122.39 24.0483C121.758 23.7171 120.885 23.7473 120.403 24.2891C120.132 24.5901 120.102 25.0416 120.223 25.4028C119.952 25.1319 119.651 24.861 119.35 24.6503C119.019 24.4095 118.658 24.1988 118.266 24.1386C117.484 24.0182 116.671 24.5901 116.37 25.3125C116.129 25.9446 116.189 26.6369 116.4 27.2691C112.667 24.7707 109.116 27.4797 107.821 31.6035C107.009 34.1922 107.189 36.9915 107.52 39.7006C107.851 42.4097 108.303 45.1187 108.002 47.8278L107.249 47.4967C103.427 48.0084 98.7007 62.0654 95.4499 64.1725C92.199 66.3096 89.8812 70.4635 90.9949 74.4067C91.3261 75.6408 91.9883 76.8448 91.8679 78.1091C91.7174 79.584 90.5434 80.6074 89.6404 81.7211C88.5568 83.0757 87.8344 84.7312 87.5033 86.4771C86.3896 84.6108 85.6069 82.4436 84.6738 80.4268C81.4831 73.7445 75.6135 68.507 68.9011 66.2795L68.7806 66.129C66.9746 61.0119 61.6769 46.2325 61.6769 46.2325C65.0783 44.3963 71.9412 40.5735 71.9412 40.5735C66.2823 36.3594 60.0515 31.4229 53.6701 26.6369C51.5631 25.0416 48.9744 23.8074 46.3256 23.7773L38.981 26.968L38.7703 39.3996C36.5428 38.8277 33.9542 39.821 32.7803 41.8077C31.486 44.005 32.0579 47.1355 34.0445 48.7308C35.3087 49.7241 37.0545 50.0252 38.6198 49.694V49.8446C37.5964 56.7075 36.5429 62.4567 35.2485 68.507L34.3154 67.9351C13.7566 80.3064 -0.149885 103.996 0.542431 128.076C0.662833 132.441 2.13775 136.956 5.41873 139.815C9.51242 143.397 15.5928 143.789 20.8604 142.524C23.2383 141.953 25.5862 141.08 28.0244 141.14C30.312 141.2 32.5093 142.043 34.7669 142.314C37.0545 142.585 39.6733 142.013 40.8171 140.026L41.4192 139.695C47.1985 138.04 53.038 136.384 58.1852 133.314C63.3324 130.243 67.8175 125.548 69.2924 119.738C69.4128 119.317 69.2021 118.685 68.9011 118.594C69.774 118.324 70.376 117.39 70.2255 116.487C70.2255 116.487 80.7607 110.979 87.0819 115.494C93.403 120.009 108.453 125.427 117.363 115.434C121.216 111.099 124.256 105.832 124.798 100.052C125.37 93.942 123.323 87.7413 124.226 81.6609C124.738 78.1392 126.213 74.8281 127.597 71.517C128.982 68.206 130.276 64.8347 130.427 61.2527C130.638 57.7309 129.434 53.9382 126.604 51.7409Z" fill="white"/>
<path d="M99.3341 0.689942C99.0933 0.178231 99.876 -0.30338 100.117 0.238432C101.983 4.36222 103.819 8.45592 105.685 12.5797C105.926 13.0914 105.144 13.573 104.903 13.0312C103.036 8.90743 101.17 4.81373 99.3341 0.689942ZM98.5816 12.8205C100.297 14.2955 101.983 15.7704 103.699 17.2453C104.15 17.6366 104.782 16.9744 104.331 16.6132C102.615 15.1383 100.929 13.6633 99.2137 12.1884C98.7923 11.8272 98.1602 12.4593 98.5816 12.8205ZM113.09 2.10466C113.09 5.05452 113.09 8.0044 113.09 10.9543C113.09 11.5262 113.993 11.5262 113.993 10.9543C113.993 8.0044 113.993 5.05452 113.993 2.10466C113.993 1.53275 113.09 1.53275 113.09 2.10466Z" fill="black"/>
<path d="M46.6005 116.878C52.8313 116.216 58.7913 113.296 63.1258 108.781C63.6074 108.3 64.0589 107.758 64.6007 107.336C62.5538 102.43 60.5371 97.4936 58.4902 92.5871C57.9183 91.1724 57.1357 89.6072 55.6307 89.2761C54.6976 89.0654 53.7344 89.4567 52.8614 89.8179C49.3397 91.2627 45.848 92.7376 42.3262 94.1825C40.9717 94.7544 39.4666 95.4768 39.1054 96.8915C38.8646 97.8547 39.2258 98.8481 39.587 99.7812C41.8446 105.53 44.1623 111.219 46.6005 116.878Z" fill="#9ED5F0"/>
<path d="M56.5623 93.2191C56.5623 92.9783 56.502 92.7375 56.3816 92.4967C56.3214 92.1053 56.1107 91.714 55.7194 91.5334C55.0572 91.2023 54.3047 91.4732 53.9134 92.0752C53.8231 92.1956 53.7629 92.3461 53.7027 92.4967C53.5221 92.8579 53.492 93.3094 53.6425 93.6706C53.7629 93.9716 53.9736 94.2726 54.2746 94.4231C54.4853 94.5134 54.696 94.5736 54.9067 94.5435C55.0873 94.5736 55.298 94.5736 55.4786 94.5435C56.0505 94.4231 56.5021 93.8512 56.5623 93.2191ZM54.997 92.7977C55.0271 92.7977 55.0271 92.7977 54.997 92.7977C54.997 92.7977 55.0271 92.8278 54.997 92.7977ZM58.0372 97.8847C58.0071 98.0954 57.8867 98.3061 57.7362 98.4566C57.5556 98.6372 57.3147 98.7275 57.0438 98.7576C56.8331 98.7576 56.5924 98.6974 56.4118 98.6071C56.3215 98.5469 56.2311 98.4867 56.1709 98.3964C56.0806 98.276 56.0205 98.1857 55.9602 98.0352C55.8699 97.8245 55.8699 97.5837 55.9602 97.3729C56.0506 97.1321 56.201 96.9214 56.4418 96.7709C56.6525 96.6204 56.9535 96.5904 57.1943 96.6506C57.2244 96.6506 57.2545 96.6807 57.2847 96.6807C57.3148 96.6807 57.3449 96.6807 57.375 96.6807C57.6158 96.7409 57.8265 96.8914 57.977 97.1021C58.0372 97.373 58.0673 97.6439 58.0372 97.8847Z" fill="black"/>
<path d="M35.37 122.568C35.4302 121.996 36.3332 121.996 36.273 122.568C36.1526 123.862 36.1527 125.187 36.243 126.481C36.6042 131.056 38.3801 135.541 41.2698 139.093C41.631 139.545 40.9988 140.177 40.6376 139.725C39.7647 138.672 39.0122 137.528 38.3199 136.354C36.0022 132.17 34.9486 127.324 35.37 122.568ZM49.4572 35.4566C49.6378 35.2459 49.6077 35.0051 49.4572 34.8245C48.9153 34.1322 48.3434 33.4399 47.8016 32.7476C47.6511 32.567 47.32 32.567 47.1695 32.7476C46.9889 32.9583 47.019 33.1991 47.1695 33.3797C47.7114 34.072 48.2833 34.7643 48.8251 35.4566C48.9756 35.6372 49.3066 35.6372 49.4572 35.4566ZM50.1495 31.4231C50.9321 32.2057 51.5642 33.1389 52.0157 34.1322C52.106 34.373 52.0759 34.6138 51.8652 34.7643C51.6846 34.8847 51.3535 34.8245 51.2331 34.6138C51.0224 34.1322 50.7816 33.6807 50.4806 33.2292C50.3301 32.9884 50.2097 32.8379 50.0592 32.6572C49.8786 32.4465 49.6979 32.266 49.5173 32.0854C49.3367 31.9048 49.3668 31.6338 49.5173 31.4532C49.6678 31.2425 49.999 31.2425 50.1495 31.4231ZM44.8819 30.6405C44.8819 30.6405 44.912 30.6104 44.8819 30.6405V30.6405ZM45.1829 29.6472C45.3635 29.8278 45.3334 30.1288 45.1829 30.2793C45.1227 30.3395 45.0624 30.4298 45.0022 30.49C44.9721 30.5201 44.9421 30.5502 44.912 30.5803C44.912 30.6104 44.8819 30.6104 44.8819 30.6405C44.7615 30.791 44.6712 30.9415 44.5809 31.092C44.5207 31.1823 44.4906 31.2425 44.4605 31.3328C44.4304 31.3629 44.4303 31.4231 44.4002 31.4532C44.4002 31.4833 44.3702 31.5134 44.3702 31.5435C44.3702 31.5134 44.3702 31.5435 44.3702 31.5435C44.3702 31.5736 44.34 31.5736 44.34 31.6037C44.3099 31.6338 44.31 31.694 44.31 31.7241C44.2799 31.8144 44.2498 31.9047 44.2197 31.995C44.1595 32.2359 43.9186 32.3563 43.6778 32.2961C43.437 32.2359 43.2865 31.9649 43.3768 31.7542C43.6176 30.9415 44.0391 30.2191 44.611 29.6171C44.7013 29.4666 45.0023 29.4967 45.1829 29.6472ZM47.6812 28.4733C47.7414 28.4432 47.7715 28.383 47.8016 28.3529H47.8317C47.922 28.3228 48.0123 28.3228 48.1026 28.2927C48.1628 28.2927 48.2531 28.2626 48.3133 28.2626C48.3434 28.2626 48.3736 28.2626 48.3736 28.2626C48.4338 28.2626 48.4639 28.2626 48.5241 28.2325C48.8853 28.2024 49.2464 28.1723 49.6077 28.1723C49.8485 28.1723 50.0592 27.9616 50.0592 27.7208C50.0592 27.48 49.8485 27.2693 49.6077 27.2693C49.126 27.2693 48.6144 27.3294 48.1328 27.3896C47.922 27.4197 47.6813 27.4498 47.4706 27.51C47.32 27.5401 47.1695 27.6305 47.0792 27.7509C46.9287 27.9315 46.9287 28.1422 47.019 28.3228C47.1695 28.5335 47.4705 28.5937 47.6812 28.4733ZM47.8919 28.082C47.8919 28.0519 47.8919 28.082 47.8919 28.082C47.8919 28.0519 47.8919 28.0519 47.8919 28.082ZM55.5375 52.8548C55.2365 53.7879 54.9054 54.7511 54.2733 55.5338C53.6712 56.3164 52.7382 56.9184 51.7448 56.8883C50.2398 56.8582 49.1261 55.4736 48.6444 54.0589C48.223 52.8247 48.1327 51.4702 47.7414 50.206C47.5006 49.7544 47.3501 49.2126 47.7113 48.8514C47.9521 48.6106 48.3735 48.6106 48.7046 48.731C49.0357 48.8514 49.2765 49.1223 49.5173 49.3932C50.4505 50.3565 51.5943 51.3799 52.9187 51.1391C53.7314 50.9886 54.6345 50.3564 55.3268 50.8381C55.8987 51.2595 55.7482 52.1625 55.5375 52.8548ZM57.1328 78.0491C56.9823 79.0123 57.0425 80.0357 57.9455 80.6076C58.6378 81.0591 59.4807 81.2397 60.2031 81.6912C60.9556 82.1428 61.4372 82.8351 61.4974 83.708C61.5576 84.5809 61.2266 85.4538 61.0159 86.2967C60.8051 87.1696 60.8353 87.9522 61.6179 88.494C62.4306 89.0659 63.2132 89.4873 63.7249 90.3603C64.6881 92.0158 64.5075 94.1228 64.2667 95.959C64.2366 96.1998 64.0861 96.4105 63.8152 96.4105C63.6045 96.4105 63.3335 96.1998 63.3636 95.959C63.6045 94.1228 63.9055 91.6847 62.4908 90.2398C61.8586 89.5776 60.8954 89.3067 60.3837 88.5241C59.9021 87.8318 59.9322 86.9589 60.1128 86.1763C60.2934 85.3936 60.6245 84.611 60.5944 83.7983C60.5643 83.0157 59.9924 82.5642 59.3302 82.2632C58.6078 81.9321 57.8553 81.7214 57.2231 81.2096C56.4706 80.6076 56.1696 79.7046 56.1696 78.7715C56.1997 77.6879 56.6512 76.6042 56.4706 75.5206C56.3502 74.8283 55.5977 73.835 54.8151 74.3166C54.3335 74.6176 53.882 73.835 54.3636 73.534C55.2967 72.9621 56.4706 73.5039 57.0125 74.3467C57.7349 75.4303 57.3134 76.845 57.1328 78.0491ZM58.668 78.3501C58.7884 78.6511 59.0292 78.8919 59.3001 79.0424C59.571 79.1929 59.9021 79.2531 60.2031 79.1929C60.5041 79.1327 60.7449 78.9521 60.9255 78.6812C61.2566 78.2297 61.2265 77.5976 60.9556 77.116C60.8352 76.8752 60.6245 76.6644 60.4138 76.544C60.1128 76.3935 59.7817 76.3634 59.4506 76.4236C59.1195 76.4838 58.8185 76.6644 58.6078 76.9052C58.4874 77.0256 58.3971 77.1461 58.3068 77.2966C58.2165 77.4772 58.1563 77.6578 58.1563 77.8685C58.1563 77.9889 58.2165 78.1093 58.2767 78.1996C58.367 78.2899 58.4874 78.3501 58.6078 78.32C58.6379 78.3501 58.6379 78.3501 58.668 78.3501ZM59.5108 78.0491L59.5409 78.0792L59.5108 78.0491ZM59.9623 77.3267C59.9322 77.3267 59.9623 77.3267 59.9623 77.3267C59.9322 77.3267 59.9623 77.3267 59.9623 77.3267ZM59.4807 77.3869C59.5108 77.3869 59.5108 77.3567 59.5409 77.3567C59.571 77.3266 59.6312 77.3267 59.6914 77.3267H59.7215C59.7215 77.3267 59.7215 77.3267 59.7516 77.3267C59.7817 77.3267 59.8419 77.3267 59.872 77.3267C59.9021 77.3267 59.9021 77.3267 59.9322 77.3267C59.9623 77.3267 59.9623 77.3266 59.9924 77.3567C60.0225 77.3868 60.0526 77.3869 60.0827 77.417L60.1128 77.4471L60.1429 77.4772C60.173 77.5073 60.173 77.5374 60.2031 77.5675C60.2031 77.5675 60.2332 77.5976 60.2332 77.6277C60.2332 77.6578 60.2633 77.6879 60.2633 77.7481V77.7782C60.2633 77.8083 60.2633 77.8685 60.2633 77.8986C60.2633 77.9287 60.2633 77.9287 60.2633 77.9588V77.9889C60.2633 78.019 60.2633 78.019 60.2633 78.0491C60.2633 78.0792 60.2633 78.0792 60.2332 78.1093C60.2332 78.1394 60.2031 78.1394 60.2031 78.1695C60.2031 78.1695 60.2031 78.1695 60.173 78.1996C60.173 78.1996 60.173 78.2297 60.1429 78.2297V78.1996C60.1429 78.2297 60.1128 78.2297 60.1128 78.2297C60.1128 78.2297 60.0827 78.2297 60.0827 78.2598C60.0827 78.2598 60.0526 78.2598 60.0526 78.2899C60.0225 78.2899 60.0225 78.2899 59.9924 78.32H59.9623H59.9322C59.9021 78.32 59.8419 78.2899 59.8118 78.2899C59.7817 78.2899 59.7817 78.2598 59.7516 78.2598C59.7215 78.2598 59.7215 78.2297 59.6914 78.2297C59.6914 78.2297 59.6914 78.2297 59.6613 78.2297L59.6312 78.1996C59.6011 78.1695 59.6011 78.1695 59.571 78.1394C59.571 78.1394 59.571 78.1394 59.5409 78.1093L59.5108 78.0792C59.5108 78.0491 59.4807 78.0491 59.4807 78.019C59.4807 77.9889 59.4506 77.9287 59.4506 77.9287V77.8986C59.4506 77.8685 59.4506 77.8384 59.4807 77.8083C59.5108 77.6879 59.4807 77.5675 59.4205 77.4471C59.4506 77.417 59.4807 77.3869 59.4807 77.3869ZM60.173 78.1996C60.173 78.1695 60.2031 78.1695 60.2031 78.1695C60.2031 78.1695 60.2031 78.1695 60.173 78.1996C60.2031 78.1695 60.173 78.1695 60.173 78.1996ZM63.1229 87.3502C63.1229 87.3502 63.1229 87.3502 63.153 87.3803C63.153 87.3502 63.153 87.3502 63.1229 87.3502C63.153 87.3502 63.153 87.3502 63.1229 87.3502ZM63.153 86.7181C63.153 86.7181 63.1229 86.7181 63.1229 86.7482C63.1229 86.7482 63.153 86.7482 63.153 86.7181ZM63.0025 86.9288C63.0025 86.8987 63.0025 86.8987 63.0326 86.8987C63.0025 86.8686 63.0025 86.8987 63.0025 86.9288ZM62.9121 88.2532C63.183 88.3736 63.5142 88.4338 63.8152 88.3435C64.0861 88.2833 64.3269 88.1027 64.5075 87.8619C64.8085 87.4405 64.8386 86.8686 64.6279 86.4171C64.4172 85.9355 63.8754 85.6645 63.3938 85.7247C63.0627 85.7548 62.7917 85.8752 62.5509 86.0859C62.3402 86.2665 62.1897 86.5375 62.1596 86.8084C62.1596 86.8385 62.1596 86.8686 62.1596 86.8987V86.9288C62.0392 87.5007 62.4004 88.0425 62.9121 88.2532ZM63.6948 86.688C63.6346 86.6579 63.6647 86.6579 63.6948 86.688V86.688ZM63.6346 86.6579C63.5744 86.6278 63.6045 86.6278 63.6346 86.6579V86.6579ZM63.0025 86.9288C63.0025 86.8987 63.0326 86.8686 63.0326 86.8987L63.0626 86.8686C63.0927 86.8385 63.1229 86.8084 63.153 86.7783C63.153 86.7783 63.1229 86.7783 63.1229 86.8084C63.1229 86.8084 63.153 86.8084 63.153 86.7783C63.1831 86.7482 63.2132 86.7482 63.1831 86.7482C63.2132 86.7181 63.2433 86.7181 63.3035 86.688C63.3336 86.688 63.3335 86.688 63.3636 86.6579C63.3937 86.6579 63.3938 86.6579 63.4239 86.6579C63.4841 86.6579 63.5443 86.6579 63.5744 86.6579H63.6045H63.6346C63.6647 86.6579 63.6647 86.688 63.6948 86.688L63.7249 86.7181C63.6948 86.688 63.7249 86.7181 63.7249 86.7181L63.755 86.7482C63.7249 86.7181 63.7249 86.7181 63.7249 86.7181C63.7249 86.7482 63.755 86.7482 63.755 86.7783C63.755 86.8084 63.7851 86.8385 63.7851 86.8686C63.7851 86.8987 63.7851 86.8987 63.7851 86.9288C63.7851 86.989 63.7851 87.0492 63.7851 87.0793C63.7851 87.1395 63.755 87.1696 63.755 87.2298C63.755 87.2599 63.7249 87.29 63.7249 87.29C63.7249 87.3201 63.6948 87.3201 63.6948 87.3201C63.6647 87.3502 63.6647 87.3803 63.6346 87.3803C63.6346 87.3803 63.6647 87.3803 63.6647 87.3502C63.6647 87.3502 63.6346 87.3502 63.6346 87.3803C63.6045 87.4104 63.5744 87.4104 63.6045 87.3803C63.6045 87.3803 63.5744 87.3803 63.5744 87.4104C63.5443 87.4104 63.5142 87.4104 63.5142 87.4405C63.4841 87.4405 63.454 87.4405 63.3938 87.4405C63.3637 87.4405 63.3336 87.4405 63.3035 87.4104H63.2734C63.2433 87.3803 63.1831 87.3502 63.153 87.3502C63.153 87.3502 63.153 87.3502 63.1831 87.3803L63.153 87.3502C63.1229 87.3502 63.1229 87.3201 63.1229 87.3201C63.0928 87.29 63.0627 87.2599 63.0326 87.2298C63.0326 87.1997 63.0025 87.1997 63.0025 87.1696C63.0025 87.1696 63.0025 87.1395 62.9724 87.1395C62.9724 87.1094 62.9724 87.0793 62.9423 87.0492C62.9423 87.0191 62.9423 86.989 62.9423 86.9589C62.9724 86.9589 62.9724 86.9589 63.0025 86.9288C63.0025 86.9288 62.9724 86.9288 63.0025 86.9288C63.0025 86.9288 62.9724 86.9288 63.0025 86.9288ZM63.6346 87.4405C63.6346 87.4405 63.6647 87.4405 63.6346 87.4405C63.6647 87.4104 63.6647 87.4104 63.6346 87.4405C63.6647 87.4405 63.6346 87.4405 63.6346 87.4405ZM63.755 86.7482C63.7249 86.7181 63.755 86.7482 63.755 86.7482C63.7249 86.7181 63.7249 86.7181 63.755 86.7482ZM70.0761 115.043C70.0159 115.013 69.9858 114.952 69.9256 114.922C70.5577 114.2 70.8889 113.177 70.7083 112.213C70.4976 111.13 69.5644 110.287 68.4808 110.076C68.842 109.354 69.1129 108.571 68.9323 107.789C68.7517 106.946 68.0594 106.344 67.2467 106.163C65.1998 105.712 63.8453 107.397 62.5509 108.692C59.7516 111.521 56.3201 113.688 52.5877 115.013C50.5709 115.735 48.4939 116.187 46.3869 116.397C45.6043 114.381 44.8518 112.334 44.0692 110.317C43.9488 110.046 43.5574 109.835 43.3166 110.106C41.932 111.852 42.5641 114.08 42.9855 116.066C43.1962 117.06 43.4371 118.143 43.2565 119.197C43.0458 120.371 42.233 121.244 41.1494 121.725C39.5842 122.417 37.8082 122.177 36.1828 121.966C36.0022 121.936 35.8517 122.026 35.7915 122.177C33.7747 119.106 31.0055 116.488 27.574 115.073C26.099 114.471 24.4736 114.11 22.8782 114.049C23.0288 112.725 22.9385 111.371 22.7579 110.076C22.4268 107.638 21.7947 105.17 22.0054 102.671C22.186 100.745 22.9686 98.7282 24.594 97.5844C25.0757 97.2533 24.6241 96.4707 24.1425 96.8018C21.1024 98.8788 20.8013 102.852 21.2227 106.193C21.5538 108.631 22.2762 111.461 21.9752 114.049C20.1391 114.11 18.303 114.531 16.6474 115.404C15.8046 115.825 14.9919 116.367 14.4501 117.15C13.9684 117.842 13.7879 118.775 14.3598 119.498C14.9016 120.19 15.925 120.431 16.7377 120.491C17.5505 120.521 18.3632 120.31 19.0856 119.979C20.711 119.227 21.8548 117.752 22.4267 116.066C22.5471 115.705 22.6375 115.344 22.6977 114.983C23.8716 115.013 25.0756 115.223 26.1893 115.555C29.9218 116.728 32.962 119.498 35.039 122.718C35.2497 123.05 35.671 122.959 35.8215 122.718C35.8817 122.809 36.0021 122.869 36.1225 122.899C37.6577 123.08 39.2831 123.26 40.7881 122.809C42.0223 122.448 43.1661 121.665 43.738 120.461C44.7012 118.384 43.7681 116.096 43.3768 114.019C43.2263 113.207 43.1661 112.304 43.4671 111.491C44.1595 113.327 44.8518 115.163 45.5742 116.999C45.6344 117.18 45.815 117.361 45.9956 117.33C49.7281 116.999 53.3402 115.916 56.6211 114.14C58.2466 113.267 59.8118 112.213 61.2265 111.009C61.949 110.407 62.6112 109.775 63.2734 109.113C63.9055 108.451 64.5376 107.698 65.3503 107.247C66.0426 106.886 67.036 106.765 67.638 107.367C68.1497 107.879 68.0293 108.601 67.7584 109.263C67.6681 109.324 67.6078 109.384 67.5777 109.504C67.4874 109.715 67.4273 109.926 67.337 110.106C67.3069 110.136 67.2768 110.197 67.2467 110.227C67.2166 110.257 67.2166 110.317 67.1865 110.377C65.0794 114.712 60.1128 116.728 55.8686 118.414C55.3268 118.625 55.5676 119.498 56.1094 119.287C60.6245 117.511 65.6514 115.404 67.939 110.919C68.7818 110.949 69.5945 111.551 69.745 112.424C69.8053 112.755 69.7751 113.116 69.6547 113.447C69.5042 113.417 69.3236 113.478 69.2333 113.658C68.9323 114.11 68.6012 114.531 68.2701 114.983C68.24 115.013 68.2099 115.043 68.2099 115.073C66.1028 117.722 63.4841 119.949 60.5342 121.605C60.0225 121.876 60.474 122.658 60.9857 122.387C64.0259 120.702 66.6748 118.414 68.842 115.705C69.0527 115.645 69.2634 115.585 69.444 115.765C69.6547 115.976 69.7751 116.397 69.7751 116.668C69.8353 117.361 69.3838 117.963 68.7517 118.173C68.6313 118.173 68.5109 118.203 68.3905 118.294C68.1497 118.444 68.1196 118.685 68.2099 118.866C66.735 121.244 64.658 123.2 62.2199 124.555C61.7082 124.826 62.1597 125.608 62.6714 125.337C65.1697 123.953 67.2768 121.966 68.8119 119.588C68.7818 119.739 68.7517 119.889 68.6915 120.04C68.541 120.581 68.3604 121.093 68.1497 121.635C67.7584 122.658 67.2466 123.621 66.6747 124.555C65.5309 126.451 64.056 128.107 62.4306 129.612C58.7583 132.923 54.2432 135.09 49.6378 136.715C46.8685 137.709 44.0391 138.491 41.2096 139.304C40.9989 139.364 40.9086 139.515 40.9086 139.665C40.728 139.575 40.4871 139.605 40.3366 139.846C39.4336 141.381 37.5674 141.923 35.8818 141.983C33.6242 142.043 31.457 141.17 29.2295 140.869C26.8516 140.538 24.5639 141.11 22.2762 141.742C20.2595 142.284 18.2729 142.705 16.1959 142.796C12.343 142.946 8.27947 142.043 5.3898 139.364C2.47004 136.655 1.14559 132.592 0.934888 128.709C0.724184 124.886 1.02518 121.003 1.59709 117.24C2.169 113.447 3.10215 109.685 4.33628 106.043C5.57041 102.401 7.10556 98.8787 8.9417 95.4774C10.7778 92.076 12.8849 88.795 15.2327 85.7247C17.5806 82.6545 20.1993 79.7648 23.0288 77.116C25.8281 74.4972 28.8382 72.0891 32.059 69.952C32.8416 69.4403 33.6543 68.9286 34.467 68.4169C34.9787 68.1159 34.4971 67.3332 34.0155 67.6343C30.6141 69.6811 27.4235 72.0289 24.4435 74.6176C21.4335 77.2062 18.6642 80.0658 16.1357 83.1361C13.6073 86.2064 11.3196 89.4572 9.33295 92.8887C7.3463 96.3202 5.63059 99.9022 4.24596 103.605C2.86133 107.307 1.77768 111.16 1.05526 115.043C0.332846 118.926 -0.0283624 122.869 0.00173829 126.842C0.031839 130.876 0.7844 135 3.28276 138.311C5.75101 141.592 9.54365 143.277 13.547 143.638C15.5638 143.819 17.6107 143.699 19.5973 143.307C21.9151 142.886 24.1425 141.983 26.4903 141.742C27.7245 141.592 28.9285 141.682 30.1325 141.923C31.3366 142.163 32.5105 142.495 33.7145 142.675C35.5807 143.006 37.5975 142.976 39.3132 142.073C40.0959 141.652 40.728 141.05 41.1795 140.297C41.2096 140.237 41.2096 140.207 41.2397 140.147C41.33 140.177 41.4203 140.177 41.5106 140.147C46.9588 138.582 52.4672 137.016 57.4338 134.247C61.678 131.899 65.5309 128.558 67.9089 124.284C68.5711 123.11 69.1129 121.876 69.5042 120.581C69.6848 120.009 69.8654 119.438 69.6547 118.835C69.6547 118.805 69.6246 118.775 69.6246 118.745C70.3771 118.233 70.8286 117.33 70.6781 116.427C70.6781 115.946 70.4975 115.404 70.0761 115.043ZM20.8013 117.481C19.9284 118.715 18.4234 119.678 16.8882 119.648C16.2561 119.648 15.1123 119.438 14.9317 118.685C14.7812 117.902 15.6541 117.18 16.226 116.789C17.9117 115.675 19.8682 115.103 21.8549 115.013C21.6742 115.886 21.3431 116.698 20.8013 117.481ZM41.2096 44.3664C41.0892 44.547 40.7882 44.6674 40.5775 44.5169C39.1627 43.4634 37.3266 43.1022 35.6108 43.5537C35.0389 43.7042 34.7981 42.8313 35.37 42.6808C37.2965 42.1691 39.4336 42.5604 41.029 43.7343C41.2397 43.8848 41.33 44.1256 41.2096 44.3664ZM34.768 70.554C34.4971 70.0423 35.2798 69.5908 35.5507 70.1025C36.0925 71.1259 36.7848 72.0289 37.6276 72.8116C40.8784 75.7915 45.7548 76.1828 49.4873 73.835C49.9689 73.534 50.4204 74.3166 49.9388 74.6176C48.795 75.34 47.5006 75.8517 46.1461 76.0925C43.8584 76.5139 41.4805 76.1828 39.3734 75.0992C37.4169 74.1059 35.7914 72.5105 34.768 70.554ZM71.2801 68.4169C70.7383 69.35 70.046 70.2229 69.2634 70.9453C66.464 73.5039 62.3703 74.5574 58.698 73.4738C58.1261 73.3233 58.367 72.4504 58.9389 72.6009C59.9021 72.8718 60.8653 73.0222 61.8586 72.9921C65.3503 72.9018 68.7517 71.0055 70.4976 67.9654C70.7685 67.4536 71.551 67.9051 71.2801 68.4169ZM130.879 59.3265C130.639 56.9184 129.826 54.5404 128.231 52.6742C127.839 52.2227 127.418 51.8013 126.936 51.4401C126.936 51.4401 126.936 51.4401 126.906 51.4401C127.027 51.2896 126.997 51.1391 126.936 50.9886C128.742 47.1056 129.134 42.6206 127.99 38.4968C127.869 38.1055 127.749 37.7142 127.568 37.353C127.869 37.3831 128.17 37.3831 128.471 37.2928C130.157 36.8713 130.277 34.9148 130.127 33.5001C129.946 31.7241 129.224 30.0686 128.261 28.5937C127.779 27.8712 127.267 27.1488 126.696 26.4866C126.154 25.8244 125.642 25.102 125.04 24.5301C124.528 24.0485 123.866 23.8378 123.204 24.0485C123.023 23.898 122.873 23.7776 122.662 23.6873C121.789 23.2358 120.435 23.2658 119.893 24.2291C119.863 24.2893 119.833 24.3495 119.802 24.4398C119.2 23.9582 118.508 23.597 117.725 23.7174C116.943 23.8378 116.281 24.4398 115.98 25.1622C115.799 25.5836 115.769 26.005 115.799 26.4565C114.776 25.9749 113.662 25.7341 112.458 26.005C110.441 26.4565 108.936 28.1722 108.063 29.9482C106.859 32.4164 106.739 35.1857 106.949 37.8647C107.19 40.9349 107.853 44.0052 107.672 47.0755C107.642 47.1056 107.612 47.1357 107.582 47.1658C107.491 47.0755 107.341 47.0153 107.19 47.0454C106.347 47.1658 105.625 47.7678 105.083 48.3698C104.27 49.2126 103.608 50.1758 103.006 51.1391C101.501 53.5471 100.237 56.1057 98.8824 58.604C98.2804 59.7178 97.6785 60.8014 96.9862 61.8549C96.5346 62.5472 95.9326 63.3599 95.3306 63.7813C92.3507 65.8282 90.063 69.3199 90.3941 73.0825C90.4844 74.136 90.8456 75.0691 91.1767 76.0624C91.5078 77.0558 91.7185 78.0792 91.2068 79.0725C90.7854 79.8852 90.1231 80.5474 89.5512 81.2397C88.9492 81.9622 88.4375 82.7448 88.0462 83.5876C87.8054 84.1294 87.5947 84.7013 87.4141 85.2732C87.1131 84.7013 86.8422 84.1294 86.6014 83.5575C85.7887 81.7214 85.0362 79.8852 84.0429 78.1695C83.0796 76.544 81.9358 74.9788 80.6715 73.5641C78.1431 70.7647 75.0428 68.4169 71.6113 66.8516C70.919 66.5205 70.1966 66.2496 69.444 65.9787C69.4139 65.7981 69.2935 65.6476 69.1129 65.5874C68.1196 62.7579 67.0961 59.9285 66.0727 57.099C64.9891 54.0889 63.9055 51.0488 62.8219 48.0387C62.6413 47.527 62.4606 46.9852 62.2499 46.4735C65.26 44.8179 68.2701 43.1624 71.2801 41.4768C71.5811 41.2962 71.8821 41.1457 72.1832 40.9651C72.5143 40.7845 72.4541 40.363 72.1832 40.1824C68.9323 37.7443 65.6814 35.2459 62.4606 32.7777C60.7449 31.4532 59.0592 30.1589 57.3435 28.8646C55.7181 27.6304 54.1228 26.2759 52.3468 25.2224C51.1428 24.5 49.8184 23.9281 48.4338 23.627C49.1863 23.2658 49.9689 22.7542 50.6913 22.0317C52.5275 20.1956 53.4304 14.2357 49.6678 11.2256C46.5675 19.3227 40.9086 15.4397 34.738 20.5869C29.952 24.5602 32.8115 34.6439 36.4537 38.9483C34.7981 39.2493 33.2931 40.2125 32.4202 41.6574C31.0055 44.0654 31.6075 47.4367 33.8048 49.1524C34.8282 49.9651 36.0925 50.3565 37.3868 50.3565C37.6276 50.3565 37.8985 50.3264 38.1393 50.2963C37.447 55.0221 36.6042 59.7479 35.671 64.4436C35.4001 65.768 35.1292 67.0924 34.8583 68.447C34.768 68.8082 35.1292 69.049 35.4002 68.9888C39.5541 70.7346 44.009 71.6978 48.5241 71.8182C53.1295 71.9688 57.765 71.2764 62.1296 69.7714C64.4172 68.9888 66.6446 67.9353 68.7216 66.7011C68.7517 66.7011 68.7517 66.7312 68.7818 66.7312C75.7049 69.049 81.394 74.4069 84.4642 80.999C85.277 82.7448 85.9392 84.5809 86.8723 86.2666C86.9325 86.3569 86.9927 86.4773 87.0529 86.5676C86.5713 89.2766 86.9325 92.1663 88.287 94.5443C89.1599 96.0794 90.8757 97.5844 92.7419 96.862C94.6082 96.1697 94.6082 93.9422 93.8256 92.4071C92.9226 90.601 90.9359 89.7883 89.5512 88.4037C88.9191 87.8017 88.4075 87.1094 87.956 86.3568C88.0764 85.815 88.2269 85.2431 88.4075 84.7314C88.7085 83.9187 89.0998 83.1662 89.6115 82.4739C90.1232 81.7213 90.7854 81.0892 91.3272 80.3668C91.869 79.6745 92.2604 78.8618 92.3205 77.9889C92.3808 76.9354 91.9593 75.9119 91.6282 74.9186C91.0262 73.1728 91.0563 71.3968 91.6583 69.651C92.2603 67.9653 93.3439 66.4603 94.6683 65.3165C95.15 64.9252 95.6918 64.5941 96.1433 64.2028C96.4443 63.9319 96.7152 63.6008 96.9862 63.2697C97.6785 62.3967 98.2504 61.4335 98.7922 60.5004C100.147 58.1525 101.321 55.7445 102.675 53.3966C103.307 52.313 103.939 51.1993 104.692 50.1759C105.204 49.4534 105.836 48.7009 106.558 48.2494C106.859 48.0688 107.04 47.9785 107.401 47.9183C107.461 47.9183 107.521 47.8882 107.582 47.8581C107.582 48.0387 107.672 48.1591 107.822 48.2193C108.966 50.6876 110.983 52.7645 113.451 53.9384C116.22 55.2629 119.471 55.3833 122.361 54.3297C123.776 53.818 125.07 53.0354 126.214 52.0421L126.244 52.0722C128.14 53.5471 129.254 55.7144 129.736 58.0321C130.277 60.681 129.916 63.4201 129.164 66.0088C127.538 71.6075 124.257 76.6945 123.685 82.5943C123.083 88.5542 125.01 94.484 124.348 100.444C123.776 105.651 121.217 110.528 117.756 114.411C114.144 118.474 109.568 121.575 104.752 124.043C104.15 124.344 103.548 124.645 102.946 124.916C102.434 125.157 102.886 125.939 103.398 125.698C108.394 123.32 113.18 120.371 117.093 116.427C120.856 112.635 123.776 107.879 124.889 102.641C125.491 99.7516 125.461 96.8319 125.19 93.9121C124.92 90.8719 124.438 87.8318 124.468 84.7916C124.498 81.7515 125.19 78.8618 126.274 76.0022C127.328 73.2029 128.622 70.4938 129.585 67.6343C130.548 64.9854 131.15 62.1258 130.879 59.3265ZM56.2298 70.3734C51.805 71.156 47.2297 71.1259 42.835 70.2831C40.427 69.8316 38.0791 69.1092 35.8215 68.176C36.7848 63.6007 37.6577 59.0255 38.4102 54.42C38.651 52.9752 38.8617 51.5304 39.0724 50.1156C39.9453 49.8748 40.7581 49.4234 41.4203 48.7912C41.6009 48.6106 41.6009 48.3397 41.4203 48.1591C41.2397 47.9785 40.9688 47.9785 40.7881 48.1591C39.1326 49.7544 36.1828 49.9049 34.3466 48.4601C32.5406 47.0153 31.9988 44.1256 33.1727 42.139C34.3467 40.1523 37.146 39.2192 39.2831 40.1222C39.5239 40.2125 39.7647 40.1222 39.8851 39.8814C39.9754 39.6406 39.8852 39.3998 39.6444 39.2794C39.4638 39.1891 39.253 39.1289 39.0724 39.0687L40.0959 38.8279C43.0759 35.7576 41.6009 32.4165 41.8417 29.6171C42.2029 25.4632 44.3099 25.102 46.7481 24.2893C50.5709 24.5301 53.581 27.1489 56.5008 29.3763C59.8118 31.9048 63.0927 34.4332 66.3737 36.9617C67.9389 38.1657 69.5042 39.3396 71.0996 40.5436C68.7818 41.838 66.4339 43.1323 64.1162 44.4266C63.2131 44.9083 62.3403 45.4199 61.4372 45.9015C61.2867 45.9918 61.1663 46.2327 61.2265 46.4133C61.8587 48.1892 62.4908 49.935 63.1229 51.711C64.3269 55.0522 65.531 58.4234 66.735 61.7947C67.2467 63.2094 67.7283 64.5941 68.24 66.0088C64.5677 68.146 60.474 69.6209 56.2298 70.3734ZM88.4375 88.494C89.0696 89.2465 89.8221 89.8485 90.6048 90.4204C91.9894 91.4439 93.6149 92.678 93.4944 94.6044C93.4342 95.4172 92.8924 96.0493 92.0797 96.1396C91.2068 96.2299 90.4241 95.7784 89.8522 95.1764C88.6482 93.882 88.0462 91.8954 87.8355 90.1797C87.7452 89.3669 87.7452 88.5542 87.8055 87.7415C88.0162 87.9823 88.2268 88.2532 88.4375 88.494ZM124.829 25.6137C125.732 26.6672 126.635 27.7207 127.388 28.8947C128.14 30.0084 128.742 31.2124 129.043 32.5369C129.194 33.169 129.284 33.8312 129.254 34.4934C129.224 35.0653 129.194 35.8178 128.712 36.2091C127.9 36.8714 126.966 36.3897 126.394 35.6673C126.575 35.3061 126.665 34.9148 126.756 34.5536C126.876 33.9817 126.966 33.3496 126.966 32.7777C126.996 31.5736 126.756 30.3696 126.364 29.2258C125.973 28.1422 125.431 27.0886 124.829 26.1254C124.588 25.7341 124.318 25.3428 124.047 24.9816C124.378 25.0418 124.619 25.3428 124.829 25.6137ZM121.037 24.4097C121.759 24.0184 122.542 24.5602 123.023 25.102C123.625 25.7642 124.107 26.5468 124.528 27.3294C124.98 28.1422 125.371 28.985 125.642 29.8579C125.913 30.7609 126.093 31.694 126.063 32.6572C126.063 33.1389 126.033 33.6205 125.913 34.072C125.853 34.3128 125.792 34.5536 125.732 34.7944C125.672 34.975 125.612 35.3362 125.431 35.4265C125.16 35.5168 124.829 35.0352 124.739 34.8546C124.468 34.4332 124.257 33.9817 124.047 33.5302C123.956 33.3797 123.896 33.2292 123.836 33.0787C123.716 32.2659 123.595 31.4231 123.384 30.6104C123.023 29.0151 122.421 27.4498 121.458 26.1254C121.157 25.704 120.826 25.3428 120.465 24.9816C120.645 24.8311 120.976 24.4398 121.037 24.4097ZM117.996 24.5903C118.568 24.5301 119.14 24.9816 119.532 25.3428C119.953 25.704 120.344 26.1254 120.675 26.607C122.241 28.7743 122.692 31.4533 123.023 34.0419C123.114 34.6439 123.415 35.6673 122.782 36.0586C122.391 36.2994 121.97 36.2091 121.608 35.9382C121.639 35.9382 121.639 35.9081 121.669 35.9081C122.271 35.3964 122.813 34.5235 122.632 33.7108C122.481 33.0486 121.879 32.5971 121.277 32.3261C120.555 31.995 119.833 31.8445 119.08 31.7542C118.899 30.1589 118.177 28.7141 117.033 27.6305C117.033 27.5702 117.003 27.5101 116.973 27.4499C116.552 26.4565 116.612 24.7408 117.996 24.5903ZM108.304 31.8746C108.846 30.0686 109.899 28.2325 111.615 27.2994C112.368 26.8779 113.24 26.6973 114.083 26.8177C114.685 26.908 115.227 27.1187 115.739 27.3896C115.739 27.5401 115.829 27.7207 115.95 27.811C117.154 28.7442 117.966 30.189 118.177 31.694C117.786 31.694 117.394 31.694 117.003 31.7241C115.919 31.7843 114.866 31.8747 113.843 32.1155C113.21 31.4833 112.669 30.7609 112.307 29.9181C112.217 29.7074 111.886 29.6472 111.675 29.7676C111.434 29.888 111.404 30.1589 111.525 30.3997C111.856 31.1221 112.307 31.8145 112.849 32.3864C112.669 32.4466 112.488 32.5068 112.307 32.567C110.351 33.3195 108.906 34.8546 107.732 36.5703C107.732 34.975 107.852 33.4098 108.304 31.8746ZM126.063 50.7478C126.003 50.8381 126.003 50.9585 126.033 51.0488C124.047 53.0053 121.307 54.119 118.508 54.1491C115.709 54.1792 113.03 53.0354 111.013 51.109C109.96 50.1157 109.117 48.8815 108.575 47.5571C108.876 44.1858 108.033 40.7845 107.822 37.3831C108.003 37.4734 108.274 37.4734 108.424 37.2326C109.327 35.8479 110.411 34.5536 111.886 33.771C113.15 33.0787 114.685 32.7777 116.13 32.6572C117.244 32.5669 118.448 32.4767 119.562 32.6874C120.224 32.8078 120.976 32.9884 121.488 33.4399C121.97 33.8312 121.819 34.4031 121.458 34.8546C121.307 35.0352 121.157 35.1556 121.006 35.3061C120.766 35.2459 120.495 35.3964 120.435 35.6071C119.983 35.7877 119.471 35.878 118.96 35.9081C117.876 35.9984 116.762 35.9684 115.679 35.9985C115.197 35.9985 115.107 36.6004 115.438 36.8412C116.371 37.5035 116.732 38.6774 116.732 39.761C116.732 41.1758 116.1 42.5002 115.558 43.7343C115.317 44.246 116.1 44.7276 116.341 44.1858C117.003 42.7109 117.695 41.1758 117.635 39.5202C117.605 38.557 117.304 37.6239 116.732 36.8713C117.515 36.8713 118.297 36.8413 119.08 36.7811C119.682 36.7209 120.284 36.6004 120.856 36.3897C121.247 36.781 121.759 37.052 122.361 37.052C123.053 37.052 123.746 36.6305 123.986 35.9683C124.047 35.7877 124.077 35.6071 124.107 35.3964C124.498 35.9383 125.13 36.4499 125.732 36.2693C126.003 36.5703 126.274 36.9015 126.515 37.2627C126.816 37.7142 126.906 37.955 127.057 38.4667C127.629 40.363 127.839 42.3497 127.719 44.3062C127.598 46.5337 127.027 48.731 126.063 50.7478Z" fill="black"/>
<path d="M105.143 29.5563C104.361 28.1115 103.036 27.058 101.441 26.6065C98.1902 25.6733 94.7588 27.5998 93.8256 30.8808C93.3741 32.4761 93.5547 34.1316 94.3674 35.5765C95.15 37.0213 96.4745 38.0748 98.0698 38.5263C98.6116 38.6768 99.1835 38.7671 99.7253 38.7671C102.254 38.7671 104.572 37.2019 105.505 34.7637L109.026 34.8841C109.869 33.9811 110.742 33.3791 111.103 33.1383L105.896 32.9577C105.986 31.8139 105.715 30.6099 105.143 29.5563ZM98.5514 36.8106C97.4377 36.4795 96.5046 35.7571 95.9627 34.7336C95.3908 33.7102 95.2704 32.5363 95.5714 31.3925C96.1132 29.466 97.8892 28.1717 99.7855 28.1717C100.177 28.1717 100.568 28.2319 100.959 28.3222C102.073 28.6533 103.006 29.3757 103.548 30.3991C104.03 31.242 104.18 32.2052 104.06 33.1383C103.879 33.2888 103.759 33.5296 103.759 33.7704C103.759 33.8908 103.789 33.9811 103.819 34.1015C103.006 36.2387 100.749 37.4427 98.5514 36.8106ZM140 35.0046C140 35.5163 139.609 35.9076 139.097 35.9076H135.485C135.334 35.9076 135.214 35.8775 135.094 35.8173L130.037 35.6367C130.037 35.6367 130.247 34.6132 130.187 33.8306L132.354 33.9209L132.324 30.3089C132.324 29.7971 132.716 29.4058 133.227 29.4058C133.739 29.4058 134.13 29.7971 134.13 30.3089L134.161 33.9811L135.455 34.0413L135.545 27.5095C135.545 27.0279 135.967 26.6065 136.448 26.6065C136.96 26.6065 137.351 27.0279 137.351 27.5095L137.261 34.0714H139.097C139.609 34.1015 140 34.4928 140 35.0046Z" fill="#FFE945"/>
</svg>
